<?xml version="1.0" encoding="UTF-8"?>
<svg width="248px" height="230px" viewBox="0 0 248 230" version="1.1" xmlns="http://www.w3.org/2000/svg" xmlns:xlink="http://www.w3.org/1999/xlink">
    <!-- Generator: Sketch 57.1 (83088) - https://sketch.com -->
    <title>Group 2</title>
    <desc>Created with Sketch.</desc>
    <defs>
        <linearGradient x1="50%" y1="0%" x2="50%" y2="100%" id="linearGradient-1">
            <stop stop-color="#D44040" offset="0%"></stop>
            <stop stop-color="#7A1919" offset="100%"></stop>
        </linearGradient>
        <rect id="path-2" x="14" y="7" width="220" height="50"></rect>
        <filter x="-3.2%" y="-10.0%" width="106.4%" height="128.0%" filterUnits="objectBoundingBox" id="filter-3">
            <feOffset dx="0" dy="2" in="SourceAlpha" result="shadowOffsetOuter1"></feOffset>
            <feGaussianBlur stdDeviation="2" in="shadowOffsetOuter1" result="shadowBlurOuter1"></feGaussianBlur>
            <feColorMatrix values="0 0 0 0 0   0 0 0 0 0   0 0 0 0 0  0 0 0 0.5 0" type="matrix" in="shadowBlurOuter1"></feColorMatrix>
        </filter>
        <rect id="path-4" x="14" y="187" width="220" height="32"></rect>
        <filter x="-3.2%" y="-15.6%" width="106.4%" height="143.8%" filterUnits="objectBoundingBox" id="filter-5">
            <feOffset dx="0" dy="2" in="SourceAlpha" result="shadowOffsetOuter1"></feOffset>
            <feGaussianBlur stdDeviation="2" in="shadowOffsetOuter1" result="shadowBlurOuter1"></feGaussianBlur>
            <feColorMatrix values="0 0 0 0 0   0 0 0 0 0   0 0 0 0 0  0 0 0 0.5 0" type="matrix" in="shadowBlurOuter1"></feColorMatrix>
        </filter>
        <radialGradient cx="50%" cy="0%" fx="50%" fy="0%" r="164.568256%" gradientTransform="translate(0.500000,0.000000),rotate(83.944877),scale(1.000000,2.132340),translate(-0.500000,-0.000000)" id="radialGradient-6">
            <stop stop-color="#E53636" offset="0%"></stop>
            <stop stop-color="#902626" offset="100%"></stop>
        </radialGradient>
        <linearGradient x1="43.2492213%" y1="58.1617457%" x2="50%" y2="100%" id="linearGradient-7">
            <stop stop-color="#CC3131" offset="0%"></stop>
            <stop stop-color="#D8D8D8" offset="100%"></stop>
        </linearGradient>
        <linearGradient x1="11.1246281%" y1="58.1617457%" x2="50%" y2="100%" id="linearGradient-8">
            <stop stop-color="#CC3131" offset="0%"></stop>
            <stop stop-color="#853434" offset="100%"></stop>
        </linearGradient>
    </defs>
    <g id="Page-1" stroke="none" stroke-width="1" fill="none" fill-rule="evenodd">
        <g id="Artboard" transform="translate(-121.000000, -94.000000)">
            <g id="Group-2" transform="translate(121.000000, 94.000000)">
                <rect id="Rectangle" fill="#748491" x="0" y="0" width="248" height="230" rx="6"></rect>
                <circle id="Oval" stroke="#979797" fill="#2F2E40" cx="124" cy="119" r="55.5"></circle>
                <circle id="Oval-Copy" fill="url(#linearGradient-1)" cx="117" cy="118" r="55"></circle>
                <circle id="Oval-Copy-2" fill="#E02020" cx="109.5" cy="118.5" r="54.5"></circle>
                <g id="Rectangle">
                    <use fill="black" fill-opacity="1" filter="url(#filter-3)" xlink:href="#path-2"></use>
                    <use fill="#FFFFFF" fill-rule="evenodd" xlink:href="#path-2"></use>
                </g>
                <g id="Rectangle-Copy">
                    <use fill="black" fill-opacity="1" filter="url(#filter-5)" xlink:href="#path-4"></use>
                    <use fill="#FFFFFF" fill-rule="evenodd" xlink:href="#path-4"></use>
                </g>
                <circle id="Oval" fill="url(#radialGradient-6)" cx="109.5" cy="118.5" r="53.5"></circle>
                <path d="M146.396859,83.7744236 C162.608042,112.996635 162.608042,135.506451 146.396859,151.303871 C122.080085,175 155.488349,138.188843 155.488349,121.825769 C155.488349,110.917052 152.457852,98.2332706 146.396859,83.7744236 Z" id="Path-5" fill="url(#linearGradient-7)"></path>
                <path d="M107.834264,76.5733213 C127.418961,110.952056 125.774938,134.530261 102.902193,147.307936 C78.9359571,160.696482 62.2217569,143.811926 74.9523795,139.577712 C81.0240946,137.558255 102.902193,124.717989 106.779831,115.291688 C112.620599,101.093135 112.972077,88.1870133 107.834264,76.5733213 Z" id="Path-5-Copy" fill="url(#linearGradient-8)" transform="translate(95.976190, 114.475641) scale(-1, -1) translate(-95.976190, -114.475641) "></path>
                <path d="M67.5415,19.18 L67.5415,25.753 L70.9855,25.753 L70.9855,28 L61.9345,28 L61.9345,25.753 L65.3785,25.753 L65.3785,19.18 L61.9345,19.18 L61.9345,17.017 L70.9855,17.017 L70.9855,19.18 L67.5415,19.18 Z M81.8005,19.264 L81.8005,28 L79.6375,28 L79.6375,21.427 L75.2275,21.427 L75.2275,28 L73.0645,28 L73.0645,19.264 L81.8005,19.264 Z M92.9935,21.427 L92.9935,25.837 L97.4035,25.837 L97.4035,28 L90.8305,28 L90.8305,16.408 L92.9935,16.408 L92.9935,19.264 L97.4035,19.264 L97.4035,21.427 L92.9935,21.427 Z M108.1555,19.264 L108.1555,28 L105.9925,28 L105.9925,21.427 L101.5825,21.427 L101.5825,28 L99.4195,28 L99.4195,16.135 L101.5825,16.135 L101.5825,19.264 L108.1555,19.264 Z M112.3555,16.45 L112.3555,18.151 L110.1925,18.151 L110.1925,16.45 L112.3555,16.45 Z M110.1925,19.39 L112.3555,19.39 L112.3555,28 L110.1925,28 L110.1925,19.39 Z M116.6395,22.75 L123.2125,22.75 L123.2125,28 L114.3925,28 L114.3925,26.026 L120.9655,26.026 L120.9655,24.514 L114.3925,24.514 L114.3925,19.264 L123.2125,19.264 L123.2125,21.301 L116.6395,21.301 L116.6395,22.75 Z M140.8945,19.264 L140.8945,28 L138.7315,28 L138.7315,21.427 L134.3215,21.427 L134.3215,28 L132.1585,28 L132.1585,16.135 L134.3215,16.135 L134.3215,19.264 L140.8945,19.264 Z M151.7515,19.264 L151.7515,28 L142.9315,28 L142.9315,19.264 L151.7515,19.264 Z M149.5045,21.427 L145.1785,21.427 L145.1785,25.837 L149.5045,25.837 L149.5045,21.427 Z M162.5245,28 L153.7885,28 L153.7885,19.264 L155.9515,19.264 L155.9515,25.837 L160.3615,25.837 L160.3615,19.264 L162.5245,19.264 L162.5245,28 Z M166.7665,22.75 L173.3395,22.75 L173.3395,28 L164.5195,28 L164.5195,26.026 L171.0925,26.026 L171.0925,24.514 L164.5195,24.514 L164.5195,19.264 L173.3395,19.264 L173.3395,21.301 L166.7665,21.301 L166.7665,22.75 Z M175.2925,19.243 L184.1125,19.243 L184.1125,24.493 L177.5395,24.493 L177.5395,25.921 L184.1125,25.921 L184.1125,27.979 L175.2925,27.979 L175.2925,19.243 Z M177.5395,22.708 L181.8655,22.708 L181.8655,21.196 L177.5395,21.196 L177.5395,22.708 Z M23.4309999,36.243 L32.2509999,36.243 L32.2509999,41.493 L25.6779999,41.493 L25.6779999,42.921 L32.2509999,42.921 L32.2509999,44.979 L23.4309999,44.979 L23.4309999,36.243 Z M25.6779999,39.708 L30.0039999,39.708 L30.0039999,38.196 L25.6779999,38.196 L25.6779999,39.708 Z M42.772,37.482 L39.517,45 L37.27,45 L34.057,37.482 L34.057,36.18 L36.01,36.18 L38.425,42.018 L40.798,36.18 L42.772,36.18 L42.772,37.482 Z M44.053,36.243 L52.873,36.243 L52.873,41.493 L46.3,41.493 L46.3,42.921 L52.873,42.921 L52.873,44.979 L44.053,44.979 L44.053,36.243 Z M46.3,39.708 L50.626,39.708 L50.626,38.196 L46.3,38.196 L46.3,39.708 Z M61.714,36.264 L61.714,40.59 L59.467,40.59 L59.467,38.427 L57.073,38.427 L57.073,45 L54.826,45 L54.826,36.264 L61.714,36.264 Z M72.214,45 L68.56,48.612 L66.859,48.612 L66.859,47.205 L69.148,45 L63.478,45 L63.478,36.264 L65.641,36.264 L65.641,42.837 L70.051,42.837 L70.051,36.264 L72.214,36.264 L72.214,45 Z M76.372,38.427 L76.372,42.837 L80.782,42.837 L80.782,45 L74.209,45 L74.209,33.408 L76.372,33.408 L76.372,36.264 L80.782,36.264 L80.782,38.427 L76.372,38.427 Z M91.534,36.264 L91.534,45 L89.371,45 L89.371,38.427 L84.961,38.427 L84.961,45 L82.798,45 L82.798,33.135 L84.961,33.135 L84.961,36.264 L91.534,36.264 Z M95.734,33.45 L95.734,35.151 L93.571,35.151 L93.571,33.45 L95.734,33.45 Z M93.571,36.39 L95.734,36.39 L95.734,45 L93.571,45 L93.571,36.39 Z M106.507,36.264 L106.507,45 L104.344,45 L104.344,38.427 L99.934,38.427 L99.934,45 L97.771,45 L97.771,36.264 L106.507,36.264 Z M117.28,48.591 L108.544,48.591 L108.544,46.428 L115.117,46.428 L115.117,45 L108.544,45 L108.544,36.264 L117.28,36.264 L117.28,48.591 Z M115.117,42.837 L115.117,38.427 L110.707,38.427 L110.707,42.837 L115.117,42.837 Z M128.473,33.45 L128.473,35.151 L126.31,35.151 L126.31,33.45 L128.473,33.45 Z M126.31,36.39 L128.473,36.39 L128.473,45 L126.31,45 L126.31,36.39 Z M132.757,39.75 L139.33,39.75 L139.33,45 L130.51,45 L130.51,43.026 L137.083,43.026 L137.083,41.514 L130.51,41.514 L130.51,36.264 L139.33,36.264 L139.33,38.301 L132.757,38.301 L132.757,39.75 Z M150.523,38.406 L150.523,42.732 L157.096,42.732 L157.096,44.979 L148.276,44.979 L148.276,36.18 L157.096,36.18 L157.096,38.406 L150.523,38.406 Z M161.254,45 L159.091,45 L159.091,33.45 L161.254,33.45 L161.254,45 Z M165.328,33.45 L165.328,35.151 L163.165,35.151 L163.165,33.45 L165.328,33.45 Z M163.165,36.39 L165.328,36.39 L165.328,45 L163.165,45 L163.165,36.39 Z M169.612,38.406 L169.612,42.732 L176.185,42.732 L176.185,44.979 L167.365,44.979 L167.365,36.18 L176.185,36.18 L176.185,38.406 L169.612,38.406 Z M183.661,40.59 L186.916,43.908 L186.916,45 L184.9,45 L181.666,41.745 L180.343,41.745 L180.343,45 L178.18,45 L178.18,33.429 L180.343,33.429 L180.343,39.519 L181.666,39.519 L184.984,36.264 L186.916,36.264 L186.916,37.356 L183.661,40.59 Z M196.807,36.243 L196.807,44.979 L187.987,44.979 L187.987,39.729 L194.56,39.729 L194.56,38.301 L187.987,38.301 L187.987,36.243 L196.807,36.243 Z M194.56,43.026 L194.56,41.514 L190.234,41.514 L190.234,43.026 L194.56,43.026 Z M207.517,36.18 L207.517,45 L198.781,45 L198.781,33.387 L200.944,33.387 L200.944,36.18 L207.517,36.18 Z M205.354,38.427 L200.944,38.427 L200.944,42.753 L205.354,42.753 L205.354,38.427 Z M211.885,45 L209.722,45 L209.722,33.45 L211.885,33.45 L211.885,45 Z M213.796,36.243 L222.616,36.243 L222.616,41.493 L216.043,41.493 L216.043,42.921 L222.616,42.921 L222.616,44.979 L213.796,44.979 L213.796,36.243 Z M216.043,39.708 L220.369,39.708 L220.369,38.196 L216.043,38.196 L216.043,39.708 Z" id="Inthishouseeverythingisclickable" fill="#2F2E40" fill-rule="nonzero"></path>
                <path d="M39.538,199.18 L39.538,201.427 L48.274,201.427 L48.274,203.59 L39.538,203.59 L39.538,205.753 L48.274,205.753 L48.274,208 L37.291,208 L37.291,197.017 L48.274,197.017 L48.274,199.18 L39.538,199.18 Z M56.422,203.59 L59.299,206.446 L59.299,208 L57.745,208 L54.889,205.144 L52.033,208 L50.479,208 L50.479,206.446 L53.335,203.59 L50.479,200.818 L50.479,199.264 L52.033,199.264 L54.889,202.057 L57.745,199.264 L59.299,199.264 L59.299,200.818 L56.422,203.59 Z M63.205,201.406 L63.205,205.732 L69.778,205.732 L69.778,207.979 L60.958,207.979 L60.958,199.18 L69.778,199.18 L69.778,201.406 L63.205,201.406 Z M71.773,199.243 L80.593,199.243 L80.593,204.493 L74.02,204.493 L74.02,205.921 L80.593,205.921 L80.593,207.979 L71.773,207.979 L71.773,199.243 Z M74.02,202.708 L78.346,202.708 L78.346,201.196 L74.02,201.196 L74.02,202.708 Z M91.282,208 L84.709,208 L84.709,211.318 L82.546,211.318 L82.546,199.264 L91.282,199.264 L91.282,208 Z M89.119,201.427 L84.709,201.427 L84.709,205.837 L89.119,205.837 L89.119,201.427 Z M95.482,201.427 L95.482,205.837 L99.892,205.837 L99.892,208 L93.319,208 L93.319,196.408 L95.482,196.408 L95.482,199.264 L99.892,199.264 L99.892,201.427 L95.482,201.427 Z M111.064,201.427 L111.064,205.837 L115.474,205.837 L115.474,208 L108.901,208 L108.901,196.408 L111.064,196.408 L111.064,199.264 L115.474,199.264 L115.474,201.427 L111.064,201.427 Z M126.226,199.264 L126.226,208 L124.063,208 L124.063,201.427 L119.653,201.427 L119.653,208 L117.49,208 L117.49,196.135 L119.653,196.135 L119.653,199.264 L126.226,199.264 Z M130.426,196.45 L130.426,198.151 L128.263,198.151 L128.263,196.45 L130.426,196.45 Z M128.263,199.39 L130.426,199.39 L130.426,208 L128.263,208 L128.263,199.39 Z M134.71,202.75 L141.283,202.75 L141.283,208 L132.463,208 L132.463,206.026 L139.036,206.026 L139.036,204.514 L132.463,204.514 L132.463,199.264 L141.283,199.264 L141.283,201.301 L134.71,201.301 L134.71,202.75 Z M158.965,199.18 L158.965,208 L150.229,208 L150.229,196.387 L152.392,196.387 L152.392,199.18 L158.965,199.18 Z M156.802,201.427 L152.392,201.427 L152.392,205.753 L156.802,205.753 L156.802,201.427 Z M169.906,208 L161.17,208 L161.17,199.264 L163.333,199.264 L163.333,205.837 L167.743,205.837 L167.743,199.264 L169.906,199.264 L169.906,208 Z M174.064,201.427 L174.064,205.837 L178.474,205.837 L178.474,208 L171.901,208 L171.901,196.408 L174.064,196.408 L174.064,199.264 L178.474,199.264 L178.474,201.427 L174.064,201.427 Z M182.653,201.427 L182.653,205.837 L187.063,205.837 L187.063,208 L180.49,208 L180.49,196.408 L182.653,196.408 L182.653,199.264 L187.063,199.264 L187.063,201.427 L182.653,201.427 Z M197.899,199.264 L197.899,208 L189.079,208 L189.079,199.264 L197.899,199.264 Z M195.652,201.427 L191.326,201.427 L191.326,205.837 L195.652,205.837 L195.652,201.427 Z M208.672,199.264 L208.672,208 L206.509,208 L206.509,201.427 L202.099,201.427 L202.099,208 L199.936,208 L199.936,199.264 L208.672,199.264 Z" id="Exceptthisbutton" fill="#2F2E40" fill-rule="nonzero"></path>
                <g id="Group" transform="translate(5.000000, 5.000000)" stroke="#2F2E40" stroke-width="0.5">
                    <circle id="Oval" fill="#57636C" cx="3" cy="3" r="3.25"></circle>
                    <path d="M1.96014642,4.87652451 L4.1452679,1.23987163" id="Line-7" stroke-linecap="square" transform="translate(3.263346, 2.814466) rotate(14.000000) translate(-3.263346, -2.814466) "></path>
                    <path d="M1.78936097,4.8803846 L3.97448244,1.24373172" id="Line-7-Copy" stroke-linecap="square" transform="translate(3.092561, 2.818326) scale(-1, 1) rotate(14.000000) translate(-3.092561, -2.818326) "></path>
                </g>
                <g id="Group-Copy" transform="translate(238.000000, 5.000000)" stroke="#2F2E40" stroke-width="0.5">
                    <circle id="Oval" fill="#57636C" cx="3" cy="3" r="3.25"></circle>
                    <path d="M1.96014642,4.87652451 L4.1452679,1.23987163" id="Line-7" stroke-linecap="square" transform="translate(3.263346, 2.814466) rotate(14.000000) translate(-3.263346, -2.814466) "></path>
                    <path d="M1.78936097,4.8803846 L3.97448244,1.24373172" id="Line-7-Copy" stroke-linecap="square" transform="translate(3.092561, 2.818326) scale(-1, 1) rotate(14.000000) translate(-3.092561, -2.818326) "></path>
                </g>
                <g id="Group-Copy-3" transform="translate(238.000000, 218.000000)" stroke="#2F2E40" stroke-width="0.5">
                    <circle id="Oval" fill="#57636C" cx="3" cy="3" r="3.25"></circle>
                    <path d="M1.96014642,4.87652451 L4.1452679,1.23987163" id="Line-7" stroke-linecap="square" transform="translate(3.263346, 2.814466) rotate(14.000000) translate(-3.263346, -2.814466) "></path>
                    <path d="M1.78936097,4.8803846 L3.97448244,1.24373172" id="Line-7-Copy" stroke-linecap="square" transform="translate(3.092561, 2.818326) scale(-1, 1) rotate(14.000000) translate(-3.092561, -2.818326) "></path>
                </g>
                <g id="Group-Copy-2" transform="translate(5.000000, 218.000000)" stroke="#2F2E40" stroke-width="0.5">
                    <circle id="Oval" fill="#57636C" cx="3" cy="3" r="3.25"></circle>
                    <path d="M1.96014642,4.87652451 L4.1452679,1.23987163" id="Line-7" stroke-linecap="square" transform="translate(3.263346, 2.814466) rotate(14.000000) translate(-3.263346, -2.814466) "></path>
                    <path d="M1.78936097,4.8803846 L3.97448244,1.24373172" id="Line-7-Copy" stroke-linecap="square" transform="translate(3.092561, 2.818326) scale(-1, 1) rotate(14.000000) translate(-3.092561, -2.818326) "></path>
                </g>
            </g>
        </g>
    </g>
</svg>